<?xml version="1.0" standalone="no"?>
<!DOCTYPE svg PUBLIC "-//W3C//DTD SVG 20010904//EN" "http://www.w3.org/TR/2001/REC-SVG-20010904/DTD/svg10.dtd">
<svg version="1.0" xmlns="http://www.w3.org/2000/svg"
 width="300.000000pt" height="300.000000pt" viewBox="0 0 300.000000 300.000000"
 preserveAspectRatio="xMidYMid meet">

<g transform="translate(0.000000,300.000000) scale(0.100000,-0.100000)"
fill="#000000" stroke="none">
<path d="M1972 1519 c-26 -17 -30 -24 -21 -35 26 -32 -73 -87 -189 -104 -184
-27 -176 -25 -82 -28 66 -2 100 2 153 19 131 42 249 133 207 159 -21 14 -31
12 -68 -11z"/>
<path d="M1505 1339 c-22 -4 -83 -9 -135 -10 -87 -1 -91 -2 -50 -11 62 -13
179 -5 215 15 33 18 29 19 -30 6z"/>
<path d="M1238 1333 c7 -3 16 -2 19 1 4 3 -2 6 -13 5 -11 0 -14 -3 -6 -6z"/>
</g>
</svg>
